<svg id="地図のみ" xmlns="http://www.w3.org/2000/svg" viewBox="0 0 482 350"><style>.st0{fill:none;stroke:#F2F2F2;stroke-width:10;stroke-linecap:round;stroke-linejoin:round;stroke-miterlimit:10;} .st1{fill:#FFF000;} .st2{fill:#F2F2F2;} .st3{font-family:&apos;ShinGoPro-Light-83pv-RKSJ-H&apos;;} .st4{font-size:10.714px;} .st5{fill:#FFFFFF;} .st6{font-family:&apos;ShinGoPro-Regular-83pv-RKSJ-H&apos;;} .st7{font-size:12.8568px;} .st8{fill:none;stroke:#424242;stroke-width:5;stroke-linecap:round;stroke-linejoin:round;stroke-miterlimit:10;} .st9{fill:none;stroke:#FFFFFF;stroke-width:5;stroke-miterlimit:10;} .st10{fill:none;stroke:#FFFFFF;stroke-width:5;stroke-miterlimit:10;stroke-dasharray:17.5529,17.5529;} .st11{fill:none;stroke:#FFFFFF;stroke-width:5;stroke-miterlimit:10;stroke-dasharray:16.3519,16.3519;} .st12{fill:#00A0E8;} .st13{fill:#E4007E;} .st14{font-family:&apos;CenturyGothic&apos;;} .st15{font-size:10.9722px;}</style><path class="st0" d="M171.6 299.8l64.7-34.8 229.1-26.9M141.7 145.5l121.7-51.8 42.9 23.2"/><path class="st0" d="M414.2 300.8L307.3 116.6V7.3M117.4 118.2L236.3 265l3 77.7m5-304.8l-8 227.1"/><path class="st0" d="M183.9 204.1L167.6 227H8"/><circle class="st1" cx="207.1" cy="202.4" r="5"/><text transform="translate(196.353 181.334)"><tspan x="0" y="0" class="st2 st3 st4">阪急</tspan><tspan x="-5.4" y="13.3" class="st2 st3 st4">百貨店</tspan></text><circle class="st1" cx="251" cy="278.5" r="5"/><text transform="translate(257.548 282.167)" class="st2 st3 st4">そねざきけいさつ</text><circle class="st1" cx="272.7" cy="244.2" r="5"/><text transform="translate(246.363 235.617)" class="st2 st3 st4">HEP FIVE</text><circle class="st1" cx="253.5" cy="130.6" r="5"/><text transform="translate(248.48 146.807)" class="st2 st3 st4">UNIQLO</text><circle class="st1" cx="325.2" cy="183.1" r="5"/><text transform="translate(295.58 186.756)" class="st2 st3 st4">EST</text><text transform="translate(374.324 177.722)" class="st5 st6 st7">梅田センタービル</text><path class="st8" d="M234.2 206.3l152-144.9"/><path class="st9" d="M234.2 206.3l6.1-5.8"/><path class="st10" d="M253 188.4L373.7 73.3"/><path class="st9" d="M380.1 67.2l6.1-5.8"/><path class="st8" d="M71.7 238.6l85-.1 77.5-32.2 223.9 12.2"/><path class="st9" d="M71.7 238.6h8.5"/><path class="st11" d="M96.6 238.6l60.1-.1 77.5-32.2 207.2 11.3"/><path class="st9" d="M449.6 218l8.5.5"/><circle class="st12" cx="60.3" cy="238" r="20.3"/><text transform="translate(52.88 236.04)"><tspan x="0" y="0" class="st2 st3 st4">JR</tspan><tspan x="-8.6" y="11.2" class="st2 st3 st4">大阪駅</tspan></text><circle class="st1" cx="112.7" cy="207.4" r="5"/><text transform="translate(75.242 185.995)"><tspan x="0" y="0" class="st2 st3 st4">ヨドバシカメラ</tspan><tspan x="26.8" y="13.3" class="st2 st3 st4">梅田</tspan></text><path class="st13" d="M360.9 161.5l3.7 5.5 6.5 1.9-4.1 5.3.2 6.7-6.3-2.2-6.3 2.2.2-6.7-4.1-5.3 6.4-1.9z"/><circle class="st12" cx="177.1" cy="154.4" r="20.3"/><g><text transform="translate(166.39 152.47)"><tspan x="0" y="0" class="st2 st3 st4">阪急</tspan><tspan x="-5.4" y="11.2" class="st2 st3 st4">梅田駅</tspan></text></g><g><path class="st2" d="M73.4 82.3l-.2-.5-.5-1.6-6.9-20.4c-.3-.8-1.1-1.4-2-1.4-.9 0-1.7.6-2 1.4l-7.6 22.5 7.6 22.2c.3.8 1.1 1.4 2 1.4.9 0 1.7-.6 2-1.4l7.6-22.2zm-9.6 15.6l-5.4-15.6h10.7l-5.3 15.6z"/></g><text transform="translate(59.71 53.29)" class="st2 st14 st15">N</text></svg>
